<?xml version="1.0" encoding="UTF-8" standalone="no"?>
<!-- Created with Inkscape (http://www.inkscape.org/) -->

<svg
   xmlns:dc="http://purl.org/dc/elements/1.1/"
   xmlns:cc="http://creativecommons.org/ns#"
   xmlns:rdf="http://www.w3.org/1999/02/22-rdf-syntax-ns#"
   xmlns:svg="http://www.w3.org/2000/svg"
   xmlns="http://www.w3.org/2000/svg"
   xmlns:sodipodi="http://sodipodi.sourceforge.net/DTD/sodipodi-0.dtd"
   xmlns:inkscape="http://www.inkscape.org/namespaces/inkscape"
   viewBox="0 0 115.2056 30.117188"
   id="svg2"
   version="1.1"
   inkscape:version="0.48.5 r10040"
   sodipodi:docname="cliwix_logo.svg">
  <defs
     id="defs4" />
  <sodipodi:namedview
     id="base"
     pagecolor="#ffffff"
     bordercolor="#666666"
     borderopacity="1.0"
     inkscape:pageopacity="0.48627451"
     inkscape:pageshadow="2"
     inkscape:zoom="7.5295797"
     inkscape:cx="46.677012"
     inkscape:cy="-2.307562"
     inkscape:document-units="px"
     inkscape:current-layer="layer1"
     showgrid="false"
     inkscape:snap-page="true"
     inkscape:window-width="1600"
     inkscape:window-height="838"
     inkscape:window-x="-8"
     inkscape:window-y="-8"
     inkscape:window-maximized="1"
     fit-margin-top="0"
     fit-margin-left="0"
     fit-margin-right="0"
     fit-margin-bottom="0" />
  <metadata
     id="metadata7">
    <rdf:RDF>
      <cc:Work
         rdf:about="">
        <dc:format>image/svg+xml</dc:format>
        <dc:type
           rdf:resource="http://purl.org/dc/dcmitype/StillImage" />
        <dc:title />
      </cc:Work>
    </rdf:RDF>
  </metadata>
  <g
     inkscape:label="Ebene 1"
     inkscape:groupmode="layer"
     id="layer1"
     transform="translate(-1.377108,-0.55363846)">
    <g
       transform="matrix(1,0,-0.13968256,1,0,0)"
       style="font-size:40px;font-style:normal;font-weight:normal;line-height:125%;letter-spacing:0px;word-spacing:0px;fill:#000000;fill-opacity:1;stroke:none;font-family:Sans"
       id="text2985">
      <path
         d="m 27.494497,29.16692 c -2.044292,0.989583 -4.71356,1.484374 -8.007813,1.484375 -4.296886,-1e-6 -7.675789,-1.26302 -10.1367184,-3.789063 C 6.8890254,24.336196 5.6585579,20.970314 5.6585593,16.764576 5.6585579,12.285427 7.04202,8.6526183 9.8089499,5.8661385 12.575869,3.0797072 16.16636,1.6864794 20.580434,1.686451 c 2.734356,2.84e-5 5.039041,0.3450802 6.914063,1.0351562 l 0,6.0742188 c -1.875022,-1.1197692 -4.010436,-1.6796645 -6.40625,-1.6796875 -2.630223,2.3e-5 -4.752616,0.8268451 -6.367188,2.4804687 -1.614592,1.6536648 -2.421883,3.8932458 -2.421875,6.7187498 -8e-6,2.708345 0.76171,4.866546 2.285157,6.47461 1.523425,1.608078 3.574204,2.412114 6.152343,2.412109 2.460919,5e-6 4.713521,-0.598953 6.757813,-1.796875 z"
         style="fill:#800000"
         id="path3020" />
      <path
         d="m 37.787466,23.38567 c -9e-6,0.84636 0.201814,1.487635 0.605468,1.923828 0.403637,0.436202 0.944001,0.654301 1.621094,0.654297 0.338531,4e-6 0.677072,-0.03255 1.015625,-0.09766 0.33853,-0.0651 0.677071,-0.130203 1.015625,-0.195312 l 0,4.335937 c -0.7422,0.195313 -1.526704,0.354818 -2.353516,0.478516 -0.826832,0.123698 -1.689461,0.185546 -2.58789,0.185547 -0.82032,-1e-6 -1.565762,-0.136719 -2.236328,-0.410156 -0.670578,-0.273438 -1.243494,-0.667317 -1.71875,-1.181641 -0.475264,-0.514321 -0.843102,-1.136065 -1.103516,-1.865234 -0.260419,-0.729163 -0.390627,-1.549475 -0.390625,-2.460938 l 0,-24.19921854 6.132813,0 z"
         style="fill:#333333"
         id="path3022" />
      <path
         d="m 44.896841,6.608326 0,-5.078125 5.488281,0 0,5.078125 z m 0,23.554687 0,-20.742187 5.488281,0 0,20.742187 z"
         style="fill:#333333;font-family:Arial;-inkscape-font-specification:Arial"
         id="path3024" />
      <path
         d="m 84.681997,10.163013 -5.761719,20 -6.484375,0 -2.949219,-11.71875 C 69.291356,17.663026 69.180679,16.810162 69.154653,15.88567 l -0.117187,0 c -0.09116,1.015638 -0.22137,1.84246 -0.390625,2.480468 l -3.164063,11.796875 -6.40625,0 -5.644531,-20 6.289062,0 2.753907,13.046875 c 0.130198,0.611986 0.227855,1.354173 0.292968,2.226563 l 0.117188,0 c 0.06509,-0.911453 0.182282,-1.679681 0.351562,-2.304688 l 3.4375,-12.96875 5.878907,0 3.085937,13.046875 c 0.0781,0.325528 0.169248,1.080735 0.273438,2.265625 l 0.136718,0 c 0.06508,-0.755202 0.169248,-1.51041 0.3125,-2.265625 l 2.597657,-13.046875 z"
         style="fill:#333333"
         id="path3026" />
      <path
         d="m 87.865591,6.608326 0,-5.078125 5.488281,0 0,5.078125 z m 0,23.554687 0,-20.742187 5.488281,0 0,20.742187 z"
         style="fill:#333333;font-family:Arial;-inkscape-font-specification:Arial Bold"
         id="path3028" />
      <path
         d="m 118.00231,10.163013 -6.60156,9.6875 6.5625,10.3125 -7.10938,0 -2.89062,-5.390625 c -0.23439,-0.429681 -0.51434,-1.035149 -0.83985,-1.816406 l -0.0781,0 c -0.19533,0.546882 -0.46225,1.132819 -0.80078,1.757813 l -2.91016,5.449218 -7.089843,0 6.757813,-9.960937 -6.347657,-10.039063 7.148437,0 2.85156,5.605469 c 0.3776,0.742201 0.64452,1.367201 0.80078,1.875 l 0.0781,0 c 0.20832,-0.611966 0.48827,-1.249986 0.83984,-1.914062 l 2.91016,-5.566407 z"
         style="fill:#800000"
         id="path3030" />
    </g>
    <flowRoot
       xml:space="preserve"
       id="flowRoot2989"
       style="font-size:40px;font-style:normal;font-weight:normal;line-height:125%;letter-spacing:0px;word-spacing:0px;fill:#000000;fill-opacity:1;stroke:none;font-family:Sans"><flowRegion
         id="flowRegion2991"><rect
           id="rect2993"
           width="37.142857"
           height="45.714287"
           x="321.42856"
           y="516.64789" /></flowRegion><flowPara
         id="flowPara2995" /></flowRoot>  </g>
</svg>
